<svg version="1.1" xmlns="http://www.w3.org/2000/svg" xmlns:xlink="http://www.w3.org/1999/xlink" width="24" height="24" viewBox="0,0,256,256"><g fill="none" fill-rule="nonzero" stroke="none" stroke-width="2" stroke-linecap="round" stroke-linejoin="round" stroke-miterlimit="10" stroke-dasharray="" stroke-dashoffset="0" font-family="none" font-weight="none" font-size="none" text-anchor="none" style="mix-blend-mode: normal"><g transform="scale(10.66667,10.66667)"><path d="M0,0h24v24h-24z" stroke="none"></path><path d="M10,14c0.65831,0.67189 1.55936,1.05051 2.5,1.05051c0.94064,0 1.84169,-0.37862 2.5,-1.05051l4,-4c1.38071,-1.38071 1.38071,-3.61929 0,-5c-1.38071,-1.38071 -3.61929,-1.38071 -5,0l-0.5,0.5" stroke="#ffffff"></path><path d="M14,10c-0.65831,-0.67189 -1.55936,-1.05051 -2.5,-1.05051c-0.94064,0 -1.84169,0.37862 -2.5,1.05051l-4,4c-1.38071,1.38071 -1.38071,3.61929 0,5c1.38071,1.38071 3.61929,1.38071 5,0l0.5,-0.5" stroke="#ffffff"></path></g></g></svg>