<svg width="16" height="17" viewBox="0 0 16 17" fill="none" xmlns="http://www.w3.org/2000/svg">
<path d="M7.88214 13.3L4.18214 16.125C3.99881 16.275 3.79881 16.3457 3.58214 16.337C3.36548 16.329 3.17381 16.2667 3.00714 16.15C2.84048 16.0333 2.71148 15.875 2.62014 15.675C2.52814 15.475 2.52381 15.2583 2.60714 15.025L4.03214 10.4L0.407143 7.82501C0.207143 7.69167 0.0821428 7.51667 0.0321428 7.30001C-0.0178572 7.08334 -0.00952375 6.88334 0.0571429 6.70001C0.12381 6.51667 0.240476 6.35401 0.407143 6.21201C0.573809 6.07067 0.773809 6.00001 1.00714 6.00001H5.48214L6.93214 1.20001C7.01548 0.966673 7.14481 0.78734 7.32014 0.662006C7.49481 0.53734 7.68214 0.475006 7.88214 0.475006C8.08214 0.475006 8.26948 0.53734 8.44414 0.662006C8.61948 0.78734 8.74881 0.966673 8.83214 1.20001L10.2821 6.00001H14.7571C14.9905 6.00001 15.1905 6.07067 15.3571 6.21201C15.5238 6.35401 15.6405 6.51667 15.7071 6.70001C15.7738 6.88334 15.7821 7.08334 15.7321 7.30001C15.6821 7.51667 15.5571 7.69167 15.3571 7.82501L11.7321 10.4L13.1571 15.025C13.2405 15.2583 13.2365 15.475 13.1451 15.675C13.0531 15.875 12.9238 16.0333 12.7571 16.15C12.5905 16.2667 12.3988 16.329 12.1821 16.337C11.9655 16.3457 11.7655 16.275 11.5821 16.125L7.88214 13.3Z" fill="#3A4B71"/>
</svg>
