<svg width="16" height="17" viewBox="0 0 16 17" fill="none" xmlns="http://www.w3.org/2000/svg">
<path d="M8 13.3L4.3 16.125C4.11667 16.275 3.91667 16.3457 3.7 16.337C3.48333 16.329 3.29167 16.2667 3.125 16.15C2.95833 16.0333 2.82933 15.875 2.738 15.675C2.646 15.475 2.64167 15.2583 2.725 15.025L4.15 10.4L0.525002 7.82501C0.325002 7.69167 0.200002 7.51667 0.150002 7.30001C0.100002 7.08334 0.108335 6.88334 0.175002 6.70001C0.241668 6.51667 0.358335 6.35401 0.525002 6.21201C0.691668 6.07067 0.891668 6.00001 1.125 6.00001H5.6L7.05 1.20001C7.13333 0.966673 7.26267 0.78734 7.438 0.662006C7.61267 0.53734 7.8 0.475006 8 0.475006C8.2 0.475006 8.38734 0.53734 8.562 0.662006C8.73734 0.78734 8.86667 0.966673 8.95 1.20001L10.4 6.00001H14.875C15.1083 6.00001 15.3083 6.07067 15.475 6.21201C15.6417 6.35401 15.7583 6.51667 15.825 6.70001C15.8917 6.88334 15.9 7.08334 15.85 7.30001C15.8 7.51667 15.675 7.69167 15.475 7.82501L11.85 10.4L13.275 15.025C13.3583 15.2583 13.3543 15.475 13.263 15.675C13.171 15.875 13.0417 16.0333 12.875 16.15C12.7083 16.2667 12.5167 16.329 12.3 16.337C12.0833 16.3457 11.8833 16.275 11.7 16.125L8 13.3Z" fill="url(#paint0_radial_2_7)"/>
<defs>
<radialGradient id="paint0_radial_2_7" cx="0" cy="0" r="1" gradientUnits="userSpaceOnUse" gradientTransform="translate(8 8.40636) rotate(90) scale(7.93135 7.88214)">
<stop stop-color="#FED02C"/>
<stop offset="1" stop-color="#F0C424"/>
</radialGradient>
</defs>
</svg>
